<svg width="20" height="20" viewBox="0 0 20 20" fill="none" xmlns="http://www.w3.org/2000/svg">
<path d="M4.58301 6.66675H12.9163C14.3924 6.66675 15.1305 6.66675 15.7079 6.92081C16.3948 7.22303 16.9434 7.77167 17.2456 8.45851C17.4997 9.03592 17.4997 9.77397 17.4997 11.2501V11.2501C17.4997 12.7262 17.4997 13.4642 17.2456 14.0417C16.9434 14.7285 16.3948 15.2771 15.7079 15.5793C15.1305 15.8334 14.3925 15.8334 12.9163 15.8334H10.4988C8.49233 15.8334 7.48908 15.8334 6.74172 15.3456C6.49916 15.1872 6.28082 14.9946 6.09347 14.7737C5.51625 14.093 5.39116 13.0976 5.14097 11.1067L4.58301 6.66675Z" stroke="#5B93FF" stroke-width="1.4"/>
<path d="M1.6665 4.3C1.2799 4.3 0.966504 4.6134 0.966504 5C0.966504 5.3866 1.2799 5.7 1.6665 5.7V4.3ZM5.60008 6.72319L4.64138 5.12536L3.44089 5.84565L4.39959 7.44348L5.60008 6.72319ZM3.18365 4.3H1.6665V5.7H3.18365V4.3ZM4.64138 5.12536C4.33416 4.61331 3.78079 4.3 3.18365 4.3V5.7C3.28903 5.7 3.38668 5.75529 3.44089 5.84565L4.64138 5.12536Z" fill="#5B93FF"/>
<ellipse cx="14.5833" cy="17.9166" rx="0.833333" ry="0.833333" fill="#5B93FF"/>
<ellipse cx="8.74984" cy="17.9166" rx="0.833333" ry="0.833333" fill="#5B93FF"/>
<line x1="14.3" y1="10.7" x2="12.3667" y2="10.7" stroke="#5B93FF" stroke-width="1.4" stroke-linecap="round" stroke-linejoin="round"/>
</svg>
