<svg width="20" height="20" viewBox="0 0 20 20" fill="none" xmlns="http://www.w3.org/2000/svg">
<path fill-rule="evenodd" clip-rule="evenodd" d="M8.58417 0.502374C9.40922 -0.167458 10.5908 -0.167458 11.4158 0.502375L13.0972 1.86746C13.2298 1.97504 13.3907 2.04171 13.5605 2.05934L15.7147 2.28302C16.7717 2.39278 17.6072 3.22827 17.717 4.28531L17.9407 6.43951C17.9583 6.60928 18.025 6.77024 18.1325 6.90275L19.4976 8.58417C20.1675 9.40922 20.1675 10.5908 19.4976 11.4158L18.1325 13.0972C18.025 13.2298 17.9583 13.3907 17.9407 13.5605L17.717 15.7147C17.6072 16.7717 16.7717 17.6072 15.7147 17.717L13.5605 17.9407C13.3907 17.9583 13.2298 18.025 13.0972 18.1325L11.4158 19.4976C10.5908 20.1675 9.40922 20.1675 8.58417 19.4976L6.90275 18.1325C6.77024 18.025 6.60928 17.9583 6.43951 17.9407L4.28531 17.717C3.22827 17.6072 2.39278 16.7717 2.28302 15.7147L2.05934 13.5605C2.04171 13.3907 1.97504 13.2298 1.86746 13.0972L0.502375 11.4158C-0.167458 10.5908 -0.167458 9.40922 0.502374 8.58417L1.86746 6.90275C1.97504 6.77024 2.04171 6.60928 2.05934 6.43951L2.28302 4.28531C2.39278 3.22827 3.22827 2.39278 4.28531 2.28302L6.43951 2.05934C6.60928 2.04171 6.77024 1.97504 6.90275 1.86746L8.58417 0.502374ZM10.554 1.56389C10.2312 1.30178 9.76883 1.30178 9.44598 1.56389L7.76456 2.92898C7.42593 3.2039 7.01458 3.37429 6.58072 3.41934L4.42652 3.64302C4.0129 3.68597 3.68597 4.0129 3.64302 4.42652L3.41934 6.58072C3.37429 7.01458 3.2039 7.42593 2.92898 7.76456L1.56389 9.44598C1.30178 9.76883 1.30178 10.2312 1.56389 10.554L2.92898 12.2354C3.2039 12.5741 3.37429 12.9854 3.41934 13.4193L3.64302 15.5735C3.68597 15.9871 4.0129 16.314 4.42652 16.357L6.58072 16.5807C7.01458 16.6257 7.42593 16.7961 7.76456 17.071L9.44598 18.4361C9.76883 18.6982 10.2312 18.6982 10.554 18.4361L12.2354 17.071C12.5741 16.7961 12.9854 16.6257 13.4193 16.5807L15.5735 16.357C15.9871 16.314 16.314 15.9871 16.357 15.5735L16.5807 13.4193C16.6257 12.9854 16.7961 12.5741 17.071 12.2354L18.4361 10.554C18.6982 10.2312 18.6982 9.76883 18.4361 9.44598L17.071 7.76456C16.7961 7.42593 16.6257 7.01458 16.5807 6.58072L16.357 4.42652C16.314 4.0129 15.9871 3.68597 15.5735 3.64302L13.4193 3.41934C12.9854 3.37429 12.5741 3.2039 12.2354 2.92898L10.554 1.56389Z" fill="#0A6A1F"/>
<path fill-rule="evenodd" clip-rule="evenodd" d="M13.4127 6.58647C13.6797 6.85345 13.6797 7.28632 13.4127 7.5533L7.55281 13.4132C7.28583 13.6802 6.85296 13.6802 6.58598 13.4132C6.319 13.1462 6.319 12.7133 6.58598 12.4464L12.4459 6.58647C12.7129 6.31948 13.1457 6.31948 13.4127 6.58647Z" fill="#0A6A1F"/>
<path fill-rule="evenodd" clip-rule="evenodd" d="M12.1396 12.9302C12.1396 12.4987 12.4895 12.1489 12.921 12.1489H12.9385C13.3701 12.1489 13.7199 12.4987 13.7199 12.9302C13.7199 13.3618 13.3701 13.7116 12.9385 13.7116H12.921C12.4895 13.7116 12.1396 13.3618 12.1396 12.9302Z" fill="#0A6A1F"/>
<path fill-rule="evenodd" clip-rule="evenodd" d="M6.28027 7.06989C6.28027 6.63838 6.63008 6.28857 7.06159 6.28857H7.07917C7.51068 6.28857 7.86049 6.63838 7.86049 7.06989C7.86049 7.5014 7.51068 7.85121 7.07917 7.85121H7.06159C6.63008 7.85121 6.28027 7.5014 6.28027 7.06989Z" fill="#0A6A1F"/>
</svg>
